<?xml version="1.0" encoding="UTF-8"?>
<!-- Generated by jsxcad -->
<!DOCTYPE svg PUBLIC "-//W3C//DTD SVG 1.1 Tiny//EN" "http://www.w3.org/Graphics/SVG/1.1/DTD/svg11-tiny.dtd">
<svg baseProfile="tiny" height="1.20274111675127mm" width="1.5000000000000009mm" viewBox="-0.7500000000000004 -0.5973773265651444 1.5000000000000009 1.20274111675127" version="1.1" stroke="black" stroke-width=".1" fill="none" xmlns="http://www.w3.org/2000/svg">
<path fill="#000000" stroke="#000000" d="M-0.75 -0.008314297800338362 L-0.75 0.13300549915397636 L-0.75 0.00032783417935707655 L-0.75 -0.14099196277495765 z"/>
<path fill="#000000" stroke="#000000" d="M0.75 -0.008314297800338367 L0.75 0.1330054991539763 L-0.75 0.1330054991539763 L-0.75 -0.008314297800338367 z"/>
<path fill="#000000" stroke="#000000" d="M0.75 -0.14099196277495765 L0.75 0.00032783417935707655 L0.75 0.13300549915397636 L0.75 -0.008314297800338362 z"/>
<path fill="#000000" stroke="#000000" d="M-0.75 -0.14099196277495765 L-0.75 0.00032783417935698585 L0.75 0.00032783417935698585 L0.75 -0.14099196277495765 z"/>
<path fill="#000000" stroke="#000000" d="M-0.75 -0.008314297800338362 L-0.75 -0.14099196277495762 L0.75 -0.14099196277495762 L0.75 -0.008314297800338362 z"/>
<path fill="#000000" stroke="#000000" d="M-0.75 0.13300549915397633 L0.75 0.13300549915397633 L0.75 0.0003278341793570765 L-0.75 0.0003278341793570765 z"/>
<path fill="#000000" stroke="#000000" d="M-0.09375 -0.6053637901861252 L-0.09375 -0.46404399323181045 L0.09375 -0.46404399323181045 L0.09375 -0.6053637901861252 z"/>
<path fill="#000000" stroke="#000000" d="M-0.09375 0.4560575296108291 L-0.09375 0.5973773265651439 L-0.09375 -0.4640439932318104 L-0.09375 -0.6053637901861251 z"/>
<path fill="#000000" stroke="#000000" d="M0.09375 0.4560575296108291 L0.09375 0.5973773265651439 L-0.09375 0.5973773265651439 L-0.09375 0.4560575296108291 z"/>
<path fill="#000000" stroke="#000000" d="M0.09375 -0.6053637901861251 L0.09375 -0.4640439932318104 L0.09375 0.5973773265651439 L0.09375 0.4560575296108291 z"/>
<path fill="#000000" stroke="#000000" d="M-0.09375 -0.6053637901861251 L0.09375 -0.6053637901861251 L0.09375 0.45605752961082907 L-0.09375 0.45605752961082907 z"/>
<path fill="#000000" stroke="#000000" d="M-0.09375 -0.46404399323181034 L-0.09375 0.5973773265651438 L0.09375 0.5973773265651438 L0.09375 -0.46404399323181034 z"/>
</svg>