<?xml version="1.0" encoding="UTF-8"?>
<!-- Generated by jsxcad -->
<!DOCTYPE svg PUBLIC "-//W3C//DTD SVG 1.1 Tiny//EN" "http://www.w3.org/Graphics/SVG/1.1/DTD/svg11-tiny.dtd">
<svg baseProfile="tiny" height="1.20274111675127mm" width="1.5000000000000009mm" viewBox="-0.7500000000000004 -0.5973773265651444 1.5000000000000009 1.20274111675127" version="1.1" stroke="black" stroke-width=".1" fill="none" xmlns="http://www.w3.org/2000/svg">
<path fill="#000000" stroke="#000000" d="M-0.75 -0.04148371404399318 L-0.75 0.09983608291032153 L-0.75 0.033497250423011896 L-0.75 -0.10782254653130283 z"/>
<path fill="#000000" stroke="#000000" d="M0.75 -0.04148371404399319 L0.75 0.0998360829103215 L-0.75 0.0998360829103215 L-0.75 -0.04148371404399319 z"/>
<path fill="#000000" stroke="#000000" d="M0.75 -0.10782254653130283 L0.75 0.033497250423011896 L0.75 0.09983608291032153 L0.75 -0.04148371404399318 z"/>
<path fill="#000000" stroke="#000000" d="M-0.75 -0.10782254653130283 L-0.75 0.033497250423011854 L0.75 0.033497250423011854 L0.75 -0.10782254653130283 z"/>
<path fill="#000000" stroke="#000000" d="M-0.75 -0.04148371404399318 L-0.75 -0.10782254653130283 L0.75 -0.10782254653130283 L0.75 -0.04148371404399318 z"/>
<path fill="#000000" stroke="#000000" d="M-0.75 0.09983608291032153 L0.75 0.09983608291032153 L0.75 0.03349725042301189 L-0.75 0.03349725042301189 z"/>
<path fill="#000000" stroke="#000000" d="M-0.046875 -0.6053637901861252 L-0.046875 -0.46404399323181045 L0.046875 -0.46404399323181045 L0.046875 -0.6053637901861252 z"/>
<path fill="#000000" stroke="#000000" d="M-0.046875 0.4560575296108291 L-0.046875 0.5973773265651439 L-0.046875 -0.4640439932318104 L-0.046875 -0.6053637901861251 z"/>
<path fill="#000000" stroke="#000000" d="M0.046875 0.4560575296108291 L0.046875 0.5973773265651439 L-0.046875 0.5973773265651439 L-0.046875 0.4560575296108291 z"/>
<path fill="#000000" stroke="#000000" d="M0.046875 -0.6053637901861251 L0.046875 -0.4640439932318104 L0.046875 0.5973773265651439 L0.046875 0.4560575296108291 z"/>
<path fill="#000000" stroke="#000000" d="M-0.046875 -0.6053637901861251 L0.046875 -0.6053637901861251 L0.046875 0.45605752961082907 L-0.046875 0.45605752961082907 z"/>
<path fill="#000000" stroke="#000000" d="M-0.046875 -0.46404399323181034 L-0.046875 0.5973773265651438 L0.046875 0.5973773265651438 L0.046875 -0.46404399323181034 z"/>
</svg>